# xmcd CD database file
#
# Track frame offsets:
#	150
#	15503
#	27476
#	49467
#	68315
#	78685
#	92288
#	108029
#	126670
#
# Disc length: 1923 seconds
#
# Revision: 0
# Processed by: cddbd v1.5.2PL0 Copyright (c) Steve Scherf et al.
# Submitted via: CDex 1.81
#
DISCID=6b078109
DTITLE=Passion4Saxxes - In the mood with...
DYEAR=2017
DGENRE=Jazz
TTITLE0=In the Mood
TTITLE1=Blue Monk
TTITLE2=Moondance
TTITLE3=Duke's Suite
TTITLE4=Take Five
TTITLE5=Fever
TTITLE6=Armando's Rhumba
TTITLE7=Ulla In Africa
TTITLE8=In The Mood (Vinyl Version)
EXTD=YEAR: 2017
EXTT0=
EXTT1=
EXTT2=
EXTT3=
EXTT4=
EXTT5=
EXTT6=
EXTT7=
EXTT8=
PLAYORDER=
